<svg width="50" height="51" viewBox="0 0 50 51" fill="none" xmlns="http://www.w3.org/2000/svg">
<path d="M25 21.228C34.2048 21.228 41.6666 17.497 41.6666 12.8947C41.6666 8.2923 34.2048 4.56134 25 4.56134C15.7952 4.56134 8.33331 8.2923 8.33331 12.8947C8.33331 17.497 15.7952 21.228 25 21.228Z" fill="#1C274C"/>
<path opacity="0.5" d="M8.33331 25.3947V37.8947C8.33331 42.4969 15.7952 46.228 25 46.228C34.2048 46.228 41.6666 42.4969 41.6666 37.8947V25.3947C41.6666 29.9969 34.2048 33.728 25 33.728C15.7952 33.728 8.33331 29.9969 8.33331 25.3947Z" fill="#1C274C"/>
<path opacity="0.7" d="M8.33331 12.8947V25.3947C8.33331 29.9969 15.7952 33.728 25 33.728C34.2048 33.728 41.6666 29.9969 41.6666 25.3947V12.8947C41.6666 17.497 34.2048 21.228 25 21.228C15.7952 21.228 8.33331 17.497 8.33331 12.8947Z" fill="#1C274C"/>
</svg>
