<svg width="50" height="51" viewBox="0 0 50 51" fill="none" xmlns="http://www.w3.org/2000/svg">
<path opacity="0.5" d="M25 46.228C36.506 46.228 45.8334 36.9006 45.8334 25.3947C45.8334 13.8887 36.506 4.56134 25 4.56134C13.4941 4.56134 4.16669 13.8887 4.16669 25.3947C4.16669 36.9006 13.4941 46.228 25 46.228Z" fill="#1C274C"/>
<path d="M29.0127 30.1901C29.5231 29.7919 29.986 29.329 30.9119 28.4032L42.4542 16.8608C42.7333 16.5817 42.6056 16.1011 42.2327 15.9717C40.8704 15.4991 39.0979 14.6116 37.4402 12.9537C35.7823 11.2958 34.8948 9.52353 34.4221 8.16108C34.2927 7.78824 33.8121 7.66051 33.5331 7.93958L21.9906 19.482C21.0648 20.4079 20.6018 20.8708 20.2037 21.3813C19.7341 21.9834 19.3314 22.6349 19.0029 23.3242C18.7244 23.9086 18.5174 24.5297 18.1033 25.7717L17.5683 27.3769L16.7176 29.929L15.9199 32.3222C15.7161 32.9334 15.8752 33.6074 16.3308 34.063C16.7865 34.5186 17.4604 34.6778 18.0717 34.474L20.4648 33.6763L23.0169 32.8255L24.6221 32.2905C25.8642 31.8765 26.4852 31.6694 27.0696 31.3909C27.759 31.0624 28.4104 30.6599 29.0127 30.1901Z" fill="#1C274C"/>
<path d="M46.0681 13.2468C48.5317 10.7833 48.5317 6.78913 46.0681 4.32561C43.6046 1.86208 39.6104 1.86208 37.1471 4.32561L36.7758 4.6967C36.4179 5.05478 36.2556 5.55494 36.345 6.05338C36.4012 6.36692 36.5056 6.82534 36.6954 7.37234C37.075 8.46628 37.7917 9.9023 39.1417 11.2522C40.4914 12.6022 41.9275 13.3189 43.0214 13.6984C43.5685 13.8882 44.0269 13.9925 44.3404 14.0488C44.8389 14.1382 45.3389 13.976 45.6971 13.6179L46.0681 13.2468Z" fill="#1C274C"/>
</svg>
