<svg width="60" height="65" viewBox="0 0 60 65" fill="none" xmlns="http://www.w3.org/2000/svg">
<rect y="4.75" width="60" height="60" rx="8" fill="#1E1E1E"/>
<path d="M16.864 21.112C15.424 21.112 14.368 20.792 13.696 20.152C13.056 19.48 12.736 18.632 12.736 17.608V16.552C12.736 15.528 13.056 14.696 13.696 14.056C14.368 13.384 15.424 13.048 16.864 13.048C18.304 13.048 19.344 13.384 19.984 14.056C20.656 14.696 20.992 15.528 20.992 16.552V17.608C20.992 18.632 20.656 19.48 19.984 20.152C19.344 20.792 18.304 21.112 16.864 21.112ZM13.312 23.8H20.416V49H13.312V23.8ZM27.0464 49V23.8H34.1504V28.072H34.4384C34.8864 26.76 35.6704 25.624 36.7904 24.664C37.9104 23.704 39.4624 23.224 41.4464 23.224C44.0384 23.224 45.9904 24.088 47.3024 25.816C48.6464 27.544 49.3184 30.008 49.3184 33.208V49H42.2144V33.784C42.2144 32.152 41.9584 30.952 41.4464 30.184C40.9344 29.384 40.0224 28.984 38.7104 28.984C38.1344 28.984 37.5744 29.064 37.0304 29.224C36.4864 29.352 35.9904 29.576 35.5424 29.896C35.1264 30.216 34.7904 30.616 34.5344 31.096C34.2784 31.544 34.1504 32.072 34.1504 32.68V49H27.0464Z" fill="white"/>
</svg>
