<svg width="150" height="59" viewBox="0 0 150 59" fill="none" xmlns="http://www.w3.org/2000/svg">
<path d="M25.2 35V32.096H27.36V21.152H25.2V18.248H33.168V21.152H31.008V32.096H33.168V35H25.2ZM36.2554 35V22.4H39.8074V24.536H39.9514C40.1754 23.88 40.5674 23.312 41.1274 22.832C41.6874 22.352 42.4634 22.112 43.4554 22.112C44.7514 22.112 45.7274 22.544 46.3834 23.408C47.0554 24.272 47.3914 25.504 47.3914 27.104V35H43.8394V27.392C43.8394 26.576 43.7114 25.976 43.4554 25.592C43.1994 25.192 42.7434 24.992 42.0874 24.992C41.7994 24.992 41.5194 25.032 41.2474 25.112C40.9754 25.176 40.7274 25.288 40.5034 25.448C40.2954 25.608 40.1274 25.808 39.9994 26.048C39.8714 26.272 39.8074 26.536 39.8074 26.84V35H36.2554ZM55.2083 35C53.9762 35 53.0402 34.688 52.4002 34.064C51.7762 33.44 51.4642 32.528 51.4642 31.328V25.16H49.6882V22.4H50.5762C51.0562 22.4 51.3842 22.288 51.5602 22.064C51.7362 21.824 51.8242 21.488 51.8242 21.056V18.992H55.0162V22.4H57.5122V25.16H55.0162V32.24H57.3203V35H55.2083ZM65.382 35.288C64.422 35.288 63.566 35.136 62.814 34.832C62.062 34.512 61.422 34.072 60.894 33.512C60.382 32.936 59.99 32.24 59.718 31.424C59.462 30.608 59.334 29.696 59.334 28.688C59.334 27.696 59.462 26.8 59.718 26C59.974 25.184 60.35 24.488 60.846 23.912C61.358 23.336 61.982 22.896 62.718 22.592C63.454 22.272 64.294 22.112 65.238 22.112C66.278 22.112 67.166 22.288 67.902 22.64C68.654 22.992 69.262 23.464 69.726 24.056C70.206 24.648 70.55 25.336 70.758 26.12C70.982 26.888 71.094 27.696 71.094 28.544V29.6H63.006V29.792C63.006 30.624 63.23 31.288 63.678 31.784C64.126 32.264 64.83 32.504 65.79 32.504C66.526 32.504 67.126 32.36 67.59 32.072C68.054 31.768 68.486 31.408 68.886 30.992L70.662 33.2C70.102 33.856 69.366 34.368 68.454 34.736C67.558 35.104 66.534 35.288 65.382 35.288ZM65.31 24.728C64.59 24.728 64.022 24.968 63.606 25.448C63.206 25.912 63.006 26.536 63.006 27.32V27.512H67.422V27.296C67.422 26.528 67.246 25.912 66.894 25.448C66.558 24.968 66.03 24.728 65.31 24.728ZM73.8426 35V22.4H77.3946V25.136H77.5146C77.5786 24.784 77.6906 24.448 77.8506 24.128C78.0106 23.792 78.2186 23.496 78.4746 23.24C78.7466 22.984 79.0666 22.784 79.4346 22.64C79.8026 22.48 80.2346 22.4 80.7306 22.4H81.3546V25.712H80.4666C79.4266 25.712 78.6506 25.848 78.1386 26.12C77.6426 26.392 77.3946 26.896 77.3946 27.632V35H73.8426ZM87.3137 35C86.0977 35 85.2017 34.704 84.6257 34.112C84.0657 33.52 83.7857 32.664 83.7857 31.544V17.24H87.3377V32.24H88.9217V35H87.3137ZM93.0673 21.056C92.3473 21.056 91.8193 20.896 91.4833 20.576C91.1633 20.24 91.0033 19.816 91.0033 19.304V18.776C91.0033 18.264 91.1633 17.848 91.4833 17.528C91.8193 17.192 92.3473 17.024 93.0673 17.024C93.7873 17.024 94.3073 17.192 94.6273 17.528C94.9633 17.848 95.1313 18.264 95.1313 18.776V19.304C95.1313 19.816 94.9633 20.24 94.6273 20.576C94.3073 20.896 93.7873 21.056 93.0673 21.056ZM91.2913 22.4H94.8433V35H91.2913V22.4ZM98.3985 35V22.4H101.951V24.536H102.095C102.319 23.88 102.711 23.312 103.271 22.832C103.831 22.352 104.607 22.112 105.599 22.112C106.895 22.112 107.871 22.544 108.527 23.408C109.199 24.272 109.535 25.504 109.535 27.104V35H105.983V27.392C105.983 26.576 105.855 25.976 105.599 25.592C105.343 25.192 104.887 24.992 104.231 24.992C103.943 24.992 103.663 25.032 103.391 25.112C103.119 25.176 102.871 25.288 102.647 25.448C102.439 25.608 102.271 25.808 102.143 26.048C102.015 26.272 101.951 26.536 101.951 26.84V35H98.3985ZM112.935 17.24H116.487V27.728H116.631L118.191 25.4L120.711 22.4H124.647L120.447 27.224L125.127 35H120.903L118.071 29.672L116.487 31.448V35H112.935V17.24Z" fill="black"/>
<path d="M75 18C46.5179 5.92602 -7.65914 -10.9775 3.48921 18" stroke="black" stroke-width="3"/>
<path d="M75.2452 40C103.539 52.5091 157.451 70.241 146.748 41.096" stroke="black" stroke-width="3"/>
</svg>
