<svg width="40" height="47" viewBox="0 0 40 47" fill="none" xmlns="http://www.w3.org/2000/svg">
<rect y="5" width="40" height="40" rx="8" fill="#1E1E1E"/>
<mask id="path-2-outside-1_213_128" maskUnits="userSpaceOnUse" x="6" y="9" width="27" height="29" fill="black">
<rect fill="white" x="6" y="9" width="27" height="29"/>
<path d="M9.5 14.068C8.876 14.068 8.42 13.924 8.132 13.636C7.868 13.324 7.736 12.928 7.736 12.448V11.98C7.736 11.5 7.868 11.116 8.132 10.828C8.42 10.516 8.876 10.36 9.5 10.36C10.124 10.36 10.568 10.516 10.832 10.828C11.12 11.116 11.264 11.5 11.264 11.98V12.448C11.264 12.928 11.12 13.324 10.832 13.636C10.568 13.924 10.124 14.068 9.5 14.068ZM8.06 18.424H10.94V37H8.06V18.424ZM17.06 37V18.424H19.94V21.448H20.084C20.54 20.392 21.176 19.552 21.992 18.928C22.832 18.304 23.948 17.992 25.34 17.992C27.26 17.992 28.772 18.616 29.876 19.864C31.004 21.088 31.568 22.828 31.568 25.084V37H28.688V25.588C28.688 22.252 27.284 20.584 24.476 20.584C23.9 20.584 23.336 20.656 22.784 20.8C22.256 20.944 21.776 21.16 21.344 21.448C20.912 21.736 20.564 22.108 20.3 22.564C20.06 22.996 19.94 23.512 19.94 24.112V37H17.06Z"/>
</mask>
<path d="M9.5 14.068C8.876 14.068 8.42 13.924 8.132 13.636C7.868 13.324 7.736 12.928 7.736 12.448V11.98C7.736 11.5 7.868 11.116 8.132 10.828C8.42 10.516 8.876 10.36 9.5 10.36C10.124 10.36 10.568 10.516 10.832 10.828C11.12 11.116 11.264 11.5 11.264 11.98V12.448C11.264 12.928 11.12 13.324 10.832 13.636C10.568 13.924 10.124 14.068 9.5 14.068ZM8.06 18.424H10.94V37H8.06V18.424ZM17.06 37V18.424H19.94V21.448H20.084C20.54 20.392 21.176 19.552 21.992 18.928C22.832 18.304 23.948 17.992 25.34 17.992C27.26 17.992 28.772 18.616 29.876 19.864C31.004 21.088 31.568 22.828 31.568 25.084V37H28.688V25.588C28.688 22.252 27.284 20.584 24.476 20.584C23.9 20.584 23.336 20.656 22.784 20.8C22.256 20.944 21.776 21.16 21.344 21.448C20.912 21.736 20.564 22.108 20.3 22.564C20.06 22.996 19.94 23.512 19.94 24.112V37H17.06Z" fill="white"/>
<path d="M8.132 13.636L7.36861 14.2819L7.39548 14.3137L7.42489 14.3431L8.132 13.636ZM8.132 10.828L7.39719 10.1497L7.39485 10.1523L8.132 10.828ZM10.832 10.828L10.0686 11.4739L10.0955 11.5057L10.1249 11.5351L10.832 10.828ZM10.832 13.636L10.0972 12.9577L10.0948 12.9603L10.832 13.636ZM8.06 18.424V17.424H7.06V18.424H8.06ZM10.94 18.424H11.94V17.424H10.94V18.424ZM10.94 37V38H11.94V37H10.94ZM8.06 37H7.06V38H8.06V37ZM9.5 13.068C9.00295 13.068 8.86036 12.9501 8.83911 12.9289L7.42489 14.3431C7.97964 14.8979 8.74905 15.068 9.5 15.068V13.068ZM8.89539 12.9901C8.81003 12.8892 8.736 12.7349 8.736 12.448H6.736C6.736 13.1211 6.92597 13.7588 7.36861 14.2819L8.89539 12.9901ZM8.736 12.448V11.98H6.736V12.448H8.736ZM8.736 11.98C8.736 11.6902 8.81078 11.5674 8.86916 11.5037L7.39485 10.1523C6.92522 10.6646 6.736 11.3098 6.736 11.98H8.736ZM8.8668 11.5063C8.89136 11.4797 9.02287 11.36 9.5 11.36V9.36C8.72913 9.36 7.94864 9.55232 7.3972 10.1497L8.8668 11.5063ZM9.5 11.36C9.73369 11.36 9.88238 11.3898 9.96952 11.4205C10.0495 11.4485 10.068 11.4732 10.0686 11.4739L11.5954 10.1821C11.0595 9.54875 10.262 9.36 9.5 9.36V11.36ZM10.1249 11.5351C10.1922 11.6024 10.264 11.7143 10.264 11.98H12.264C12.264 11.2857 12.0478 10.6296 11.5391 10.1209L10.1249 11.5351ZM10.264 11.98V12.448H12.264V11.98H10.264ZM10.264 12.448C10.264 12.7119 10.1922 12.8548 10.0972 12.9577L11.5668 14.3143C12.0478 13.7931 12.264 13.1441 12.264 12.448H10.264ZM10.0948 12.9603C10.1079 12.946 10.0071 13.068 9.5 13.068V15.068C10.2409 15.068 11.0281 14.902 11.5692 14.3117L10.0948 12.9603ZM8.06 19.424H10.94V17.424H8.06V19.424ZM9.94 18.424V37H11.94V18.424H9.94ZM10.94 36H8.06V38H10.94V36ZM9.06 37V18.424H7.06V37H9.06ZM17.06 37H16.06V38H17.06V37ZM17.06 18.424V17.424H16.06V18.424H17.06ZM19.94 18.424H20.94V17.424H19.94V18.424ZM19.94 21.448H18.94V22.448H19.94V21.448ZM20.084 21.448V22.448H20.7414L21.0021 21.8444L20.084 21.448ZM21.992 18.928L21.3956 18.1252L21.3846 18.1336L21.992 18.928ZM29.876 19.864L29.127 20.5266L29.1337 20.5342L29.1406 20.5417L29.876 19.864ZM31.568 37V38H32.568V37H31.568ZM28.688 37H27.688V38H28.688V37ZM22.784 20.8L22.5316 19.8323L22.5209 19.8352L22.784 20.8ZM21.344 21.448L21.8987 22.2801L21.8987 22.28L21.344 21.448ZM20.3 22.564L19.4346 22.063L19.4301 22.0706L19.4258 22.0784L20.3 22.564ZM19.94 37V38H20.94V37H19.94ZM18.06 37V18.424H16.06V37H18.06ZM17.06 19.424H19.94V17.424H17.06V19.424ZM18.94 18.424V21.448H20.94V18.424H18.94ZM19.94 22.448H20.084V20.448H19.94V22.448ZM21.0021 21.8444C21.3985 20.9263 21.935 20.2305 22.5995 19.7224L21.3846 18.1336C20.417 18.8735 19.6815 19.8577 19.1659 21.0516L21.0021 21.8444ZM22.5883 19.7307C23.2068 19.2713 24.0924 18.992 25.34 18.992V16.992C23.8036 16.992 22.4572 17.3367 21.3957 18.1253L22.5883 19.7307ZM25.34 18.992C27.0218 18.992 28.2426 19.5268 29.127 20.5266L30.625 19.2014C29.3014 17.7052 27.4982 16.992 25.34 16.992V18.992ZM29.1406 20.5417C30.0457 21.5238 30.568 22.9886 30.568 25.084H32.568C32.568 22.6674 31.9623 20.6522 30.6114 19.1863L29.1406 20.5417ZM30.568 25.084V37H32.568V25.084H30.568ZM31.568 36H28.688V38H31.568V36ZM29.688 37V25.588H27.688V37H29.688ZM29.688 25.588C29.688 23.8039 29.3162 22.2794 28.4001 21.191C27.4562 20.0697 26.0837 19.584 24.476 19.584V21.584C25.6763 21.584 26.4098 21.9323 26.8699 22.479C27.3578 23.0586 27.688 24.0361 27.688 25.588H29.688ZM24.476 19.584C23.8157 19.584 23.1668 19.6667 22.5316 19.8324L23.0364 21.7676C23.5052 21.6453 23.9843 21.584 24.476 21.584V19.584ZM22.5209 19.8352C21.8948 20.006 21.3155 20.2652 20.7893 20.6159L21.8987 22.28C22.2365 22.0548 22.6172 21.882 23.0471 21.7648L22.5209 19.8352ZM20.7893 20.6159C20.2278 20.9903 19.7742 21.4763 19.4346 22.063L21.1654 23.065C21.3538 22.7397 21.5962 22.4817 21.8987 22.2801L20.7893 20.6159ZM19.4258 22.0784C19.0874 22.6876 18.94 23.3782 18.94 24.112H20.94C20.94 23.6458 21.0326 23.3044 21.1742 23.0496L19.4258 22.0784ZM18.94 24.112V37H20.94V24.112H18.94ZM19.94 36H17.06V38H19.94V36Z" fill="white" mask="url(#path-2-outside-1_213_128)"/>
</svg>
