<svg width="97" height="19" viewBox="0 0 97 19" fill="none" xmlns="http://www.w3.org/2000/svg">
<mask id="path-1-outside-1_211_90" maskUnits="userSpaceOnUse" x="-1" y="-1" width="100" height="21" fill="black">
<rect fill="white" x="-1" y="-1" width="100" height="21"/>
<path d="M0.44 18V16.32H2.792V2.928H0.44V1.248H7.16V2.928H4.808V16.32H7.16V18H0.44ZM11.3694 18V5.616H13.2894V7.632H13.3854C13.6894 6.928 14.1134 6.368 14.6574 5.952C15.2174 5.536 15.9614 5.328 16.8894 5.328C18.1694 5.328 19.1774 5.744 19.9134 6.576C20.6654 7.392 21.0414 8.552 21.0414 10.056V18H19.1214V10.392C19.1214 8.168 18.1854 7.056 16.3134 7.056C15.9294 7.056 15.5534 7.104 15.1854 7.2C14.8334 7.296 14.5134 7.44 14.2254 7.632C13.9374 7.824 13.7054 8.072 13.5294 8.376C13.3694 8.664 13.2894 9.008 13.2894 9.408V18H11.3694ZM28.466 18C27.794 18 27.282 17.816 26.93 17.448C26.594 17.064 26.426 16.568 26.426 15.96V7.296H24.386V5.616H25.538C25.954 5.616 26.234 5.536 26.378 5.376C26.538 5.2 26.618 4.904 26.618 4.488V2.184H28.346V5.616H31.058V7.296H28.346V16.32H30.866V18H28.466ZM39.4263 18.288C38.5783 18.288 37.8103 18.136 37.1223 17.832C36.4503 17.528 35.8663 17.096 35.3703 16.536C34.8903 15.96 34.5143 15.28 34.2423 14.496C33.9863 13.696 33.8583 12.8 33.8583 11.808C33.8583 10.832 33.9863 9.944 34.2423 9.144C34.5143 8.344 34.8903 7.664 35.3703 7.104C35.8663 6.528 36.4503 6.088 37.1223 5.784C37.8103 5.48 38.5783 5.328 39.4263 5.328C40.2583 5.328 41.0023 5.48 41.6583 5.784C42.3143 6.088 42.8743 6.512 43.3383 7.056C43.8023 7.584 44.1543 8.216 44.3943 8.952C44.6503 9.688 44.7783 10.496 44.7783 11.376V12.288H35.8743V12.864C35.8743 13.392 35.9543 13.888 36.1143 14.352C36.2903 14.8 36.5303 15.192 36.8343 15.528C37.1543 15.864 37.5383 16.128 37.9863 16.32C38.4503 16.512 38.9703 16.608 39.5463 16.608C40.3303 16.608 41.0103 16.424 41.5863 16.056C42.1783 15.688 42.6343 15.16 42.9543 14.472L44.3223 15.456C43.9223 16.304 43.2983 16.992 42.4503 17.52C41.6023 18.032 40.5943 18.288 39.4263 18.288ZM39.4263 6.936C38.8983 6.936 38.4183 7.032 37.9863 7.224C37.5543 7.4 37.1783 7.656 36.8583 7.992C36.5543 8.328 36.3143 8.728 36.1383 9.192C35.9623 9.64 35.8743 10.136 35.8743 10.68V10.848H42.7143V10.584C42.7143 9.48 42.4103 8.6 41.8023 7.944C41.2103 7.272 40.4183 6.936 39.4263 6.936ZM48.6622 18V5.616H50.5822V7.896H50.7022C50.9262 7.304 51.3262 6.776 51.9022 6.312C52.4782 5.848 53.2702 5.616 54.2782 5.616H55.0222V7.536H53.8942C52.8542 7.536 52.0382 7.736 51.4462 8.136C50.8702 8.52 50.5822 9.008 50.5822 9.6V18H48.6622ZM60.2347 18C59.5627 18 59.0507 17.816 58.6987 17.448C58.3627 17.064 58.1947 16.584 58.1947 16.008V0.24H60.1147V16.32H61.9387V18H60.2347ZM66.4137 2.712C65.9977 2.712 65.6937 2.616 65.5017 2.424C65.3257 2.216 65.2377 1.952 65.2377 1.632V1.32C65.2377 0.999999 65.3257 0.743999 65.5017 0.551999C65.6937 0.343999 65.9977 0.24 66.4137 0.24C66.8297 0.24 67.1257 0.343999 67.3017 0.551999C67.4937 0.743999 67.5897 0.999999 67.5897 1.32V1.632C67.5897 1.952 67.4937 2.216 67.3017 2.424C67.1257 2.616 66.8297 2.712 66.4137 2.712ZM65.4537 5.616H67.3737V18H65.4537V5.616ZM72.1738 18V5.616H74.0938V7.632H74.1898C74.4938 6.928 74.9178 6.368 75.4618 5.952C76.0218 5.536 76.7658 5.328 77.6938 5.328C78.9738 5.328 79.9818 5.744 80.7178 6.576C81.4698 7.392 81.8458 8.552 81.8458 10.056V18H79.9258V10.392C79.9258 8.168 78.9898 7.056 77.1178 7.056C76.7338 7.056 76.3578 7.104 75.9898 7.2C75.6378 7.296 75.3178 7.44 75.0298 7.632C74.7418 7.824 74.5098 8.072 74.3338 8.376C74.1738 8.664 74.0938 9.008 74.0938 9.408V18H72.1738ZM86.5344 0.24H88.4544V11.496H88.5504L90.4464 9.384L93.9504 5.616H96.2784L91.6944 10.512L96.7344 18H94.4064L90.3024 11.688L88.4544 13.584V18H86.5344V0.24Z"/>
</mask>
<path d="M0.44 18V16.32H2.792V2.928H0.44V1.248H7.16V2.928H4.808V16.32H7.16V18H0.44ZM11.3694 18V5.616H13.2894V7.632H13.3854C13.6894 6.928 14.1134 6.368 14.6574 5.952C15.2174 5.536 15.9614 5.328 16.8894 5.328C18.1694 5.328 19.1774 5.744 19.9134 6.576C20.6654 7.392 21.0414 8.552 21.0414 10.056V18H19.1214V10.392C19.1214 8.168 18.1854 7.056 16.3134 7.056C15.9294 7.056 15.5534 7.104 15.1854 7.2C14.8334 7.296 14.5134 7.44 14.2254 7.632C13.9374 7.824 13.7054 8.072 13.5294 8.376C13.3694 8.664 13.2894 9.008 13.2894 9.408V18H11.3694ZM28.466 18C27.794 18 27.282 17.816 26.93 17.448C26.594 17.064 26.426 16.568 26.426 15.96V7.296H24.386V5.616H25.538C25.954 5.616 26.234 5.536 26.378 5.376C26.538 5.2 26.618 4.904 26.618 4.488V2.184H28.346V5.616H31.058V7.296H28.346V16.32H30.866V18H28.466ZM39.4263 18.288C38.5783 18.288 37.8103 18.136 37.1223 17.832C36.4503 17.528 35.8663 17.096 35.3703 16.536C34.8903 15.96 34.5143 15.28 34.2423 14.496C33.9863 13.696 33.8583 12.8 33.8583 11.808C33.8583 10.832 33.9863 9.944 34.2423 9.144C34.5143 8.344 34.8903 7.664 35.3703 7.104C35.8663 6.528 36.4503 6.088 37.1223 5.784C37.8103 5.48 38.5783 5.328 39.4263 5.328C40.2583 5.328 41.0023 5.48 41.6583 5.784C42.3143 6.088 42.8743 6.512 43.3383 7.056C43.8023 7.584 44.1543 8.216 44.3943 8.952C44.6503 9.688 44.7783 10.496 44.7783 11.376V12.288H35.8743V12.864C35.8743 13.392 35.9543 13.888 36.1143 14.352C36.2903 14.8 36.5303 15.192 36.8343 15.528C37.1543 15.864 37.5383 16.128 37.9863 16.32C38.4503 16.512 38.9703 16.608 39.5463 16.608C40.3303 16.608 41.0103 16.424 41.5863 16.056C42.1783 15.688 42.6343 15.16 42.9543 14.472L44.3223 15.456C43.9223 16.304 43.2983 16.992 42.4503 17.52C41.6023 18.032 40.5943 18.288 39.4263 18.288ZM39.4263 6.936C38.8983 6.936 38.4183 7.032 37.9863 7.224C37.5543 7.4 37.1783 7.656 36.8583 7.992C36.5543 8.328 36.3143 8.728 36.1383 9.192C35.9623 9.64 35.8743 10.136 35.8743 10.68V10.848H42.7143V10.584C42.7143 9.48 42.4103 8.6 41.8023 7.944C41.2103 7.272 40.4183 6.936 39.4263 6.936ZM48.6622 18V5.616H50.5822V7.896H50.7022C50.9262 7.304 51.3262 6.776 51.9022 6.312C52.4782 5.848 53.2702 5.616 54.2782 5.616H55.0222V7.536H53.8942C52.8542 7.536 52.0382 7.736 51.4462 8.136C50.8702 8.52 50.5822 9.008 50.5822 9.6V18H48.6622ZM60.2347 18C59.5627 18 59.0507 17.816 58.6987 17.448C58.3627 17.064 58.1947 16.584 58.1947 16.008V0.24H60.1147V16.32H61.9387V18H60.2347ZM66.4137 2.712C65.9977 2.712 65.6937 2.616 65.5017 2.424C65.3257 2.216 65.2377 1.952 65.2377 1.632V1.32C65.2377 0.999999 65.3257 0.743999 65.5017 0.551999C65.6937 0.343999 65.9977 0.24 66.4137 0.24C66.8297 0.24 67.1257 0.343999 67.3017 0.551999C67.4937 0.743999 67.5897 0.999999 67.5897 1.32V1.632C67.5897 1.952 67.4937 2.216 67.3017 2.424C67.1257 2.616 66.8297 2.712 66.4137 2.712ZM65.4537 5.616H67.3737V18H65.4537V5.616ZM72.1738 18V5.616H74.0938V7.632H74.1898C74.4938 6.928 74.9178 6.368 75.4618 5.952C76.0218 5.536 76.7658 5.328 77.6938 5.328C78.9738 5.328 79.9818 5.744 80.7178 6.576C81.4698 7.392 81.8458 8.552 81.8458 10.056V18H79.9258V10.392C79.9258 8.168 78.9898 7.056 77.1178 7.056C76.7338 7.056 76.3578 7.104 75.9898 7.2C75.6378 7.296 75.3178 7.44 75.0298 7.632C74.7418 7.824 74.5098 8.072 74.3338 8.376C74.1738 8.664 74.0938 9.008 74.0938 9.408V18H72.1738ZM86.5344 0.24H88.4544V11.496H88.5504L90.4464 9.384L93.9504 5.616H96.2784L91.6944 10.512L96.7344 18H94.4064L90.3024 11.688L88.4544 13.584V18H86.5344V0.24Z" fill="black"/>
<path d="M0.44 18H-0.56V19H0.44V18ZM0.44 16.32V15.32H-0.56V16.32H0.44ZM2.792 16.32V17.32H3.792V16.32H2.792ZM2.792 2.928H3.792V1.928H2.792V2.928ZM0.44 2.928H-0.56V3.928H0.44V2.928ZM0.44 1.248V0.248H-0.56V1.248H0.44ZM7.16 1.248H8.16V0.248H7.16V1.248ZM7.16 2.928V3.928H8.16V2.928H7.16ZM4.808 2.928V1.928H3.808V2.928H4.808ZM4.808 16.32H3.808V17.32H4.808V16.32ZM7.16 16.32H8.16V15.32H7.16V16.32ZM7.16 18V19H8.16V18H7.16ZM1.44 18V16.32H-0.56V18H1.44ZM0.44 17.32H2.792V15.32H0.44V17.32ZM3.792 16.32V2.928H1.792V16.32H3.792ZM2.792 1.928H0.44V3.928H2.792V1.928ZM1.44 2.928V1.248H-0.56V2.928H1.44ZM0.44 2.248H7.16V0.248H0.44V2.248ZM6.16 1.248V2.928H8.16V1.248H6.16ZM7.16 1.928H4.808V3.928H7.16V1.928ZM3.808 2.928V16.32H5.808V2.928H3.808ZM4.808 17.32H7.16V15.32H4.808V17.32ZM6.16 16.32V18H8.16V16.32H6.16ZM7.16 17H0.44V19H7.16V17ZM11.3694 18H10.3694V19H11.3694V18ZM11.3694 5.616V4.616H10.3694V5.616H11.3694ZM13.2894 5.616H14.2894V4.616H13.2894V5.616ZM13.2894 7.632H12.2894V8.632H13.2894V7.632ZM13.3854 7.632V8.632H14.0428L14.3034 8.02844L13.3854 7.632ZM14.6574 5.952L14.061 5.14918L14.0499 5.15764L14.6574 5.952ZM19.9134 6.576L19.1644 7.23857L19.1711 7.2462L19.178 7.25368L19.9134 6.576ZM21.0414 18V19H22.0414V18H21.0414ZM19.1214 18H18.1214V19H19.1214V18ZM15.1854 7.2L14.9329 6.23232L14.9223 6.23524L15.1854 7.2ZM14.2254 7.632L14.7801 8.46405L14.7801 8.46405L14.2254 7.632ZM13.5294 8.376L12.6639 7.87496L12.6595 7.88262L12.6552 7.89036L13.5294 8.376ZM13.2894 18V19H14.2894V18H13.2894ZM12.3694 18V5.616H10.3694V18H12.3694ZM11.3694 6.616H13.2894V4.616H11.3694V6.616ZM12.2894 5.616V7.632H14.2894V5.616H12.2894ZM13.2894 8.632H13.3854V6.632H13.2894V8.632ZM14.3034 8.02844C14.5479 7.46229 14.8724 7.04648 15.2648 6.74636L14.0499 5.15764C13.3544 5.68952 12.8308 6.39371 12.4673 7.23556L14.3034 8.02844ZM15.2537 6.75474C15.5922 6.50328 16.1058 6.328 16.8894 6.328V4.328C15.817 4.328 14.8425 4.56872 14.0611 5.14926L15.2537 6.75474ZM16.8894 6.328C17.9311 6.328 18.648 6.65481 19.1644 7.23857L20.6624 5.91343C19.7068 4.83319 18.4076 4.328 16.8894 4.328V6.328ZM19.178 7.25368C19.7071 7.82778 20.0414 8.71257 20.0414 10.056H22.0414C22.0414 8.39143 21.6237 6.95622 20.6487 5.89832L19.178 7.25368ZM20.0414 10.056V18H22.0414V10.056H20.0414ZM21.0414 17H19.1214V19H21.0414V17ZM20.1214 18V10.392H18.1214V18H20.1214ZM20.1214 10.392C20.1214 9.16386 19.8665 8.05641 19.1844 7.24603C18.4745 6.40265 17.453 6.056 16.3134 6.056V8.056C17.0457 8.056 17.4282 8.26534 17.6543 8.53397C17.9082 8.83559 18.1214 9.39614 18.1214 10.392H20.1214ZM16.3134 6.056C15.845 6.056 15.3842 6.11467 14.933 6.23238L15.4378 8.16762C15.7226 8.09333 16.0137 8.056 16.3134 8.056V6.056ZM14.9223 6.23524C14.4722 6.35798 14.0528 6.54517 13.6707 6.79995L14.7801 8.46405C14.9739 8.33483 15.1945 8.23402 15.4485 8.16476L14.9223 6.23524ZM13.6707 6.79995C13.2531 7.0783 12.9156 7.4403 12.6639 7.87496L14.3948 8.87704C14.4952 8.70369 14.6216 8.56969 14.7801 8.46405L13.6707 6.79995ZM12.6552 7.89036C12.3967 8.35562 12.2894 8.87423 12.2894 9.408H14.2894C14.2894 9.14177 14.342 8.97238 14.4035 8.86164L12.6552 7.89036ZM12.2894 9.408V18H14.2894V9.408H12.2894ZM13.2894 17H11.3694V19H13.2894V17ZM26.93 17.448L26.1774 18.1065L26.192 18.1232L26.2074 18.1392L26.93 17.448ZM26.426 7.296H27.426V6.296H26.426V7.296ZM24.386 7.296H23.386V8.296H24.386V7.296ZM24.386 5.616V4.616H23.386V5.616H24.386ZM26.378 5.376L25.6381 4.70332L25.6347 4.70703L26.378 5.376ZM26.618 2.184V1.184H25.618V2.184H26.618ZM28.346 2.184H29.346V1.184H28.346V2.184ZM28.346 5.616H27.346V6.616H28.346V5.616ZM31.058 5.616H32.058V4.616H31.058V5.616ZM31.058 7.296V8.296H32.058V7.296H31.058ZM28.346 7.296V6.296H27.346V7.296H28.346ZM28.346 16.32H27.346V17.32H28.346V16.32ZM30.866 16.32H31.866V15.32H30.866V16.32ZM30.866 18V19H31.866V18H30.866ZM28.466 17C27.9758 17 27.7611 16.8702 27.6526 16.7568L26.2074 18.1392C26.8029 18.7618 27.6122 19 28.466 19V17ZM27.6826 16.7895C27.5355 16.6214 27.426 16.3746 27.426 15.96H25.426C25.426 16.7614 25.6525 17.5066 26.1774 18.1065L27.6826 16.7895ZM27.426 15.96V7.296H25.426V15.96H27.426ZM26.426 6.296H24.386V8.296H26.426V6.296ZM25.386 7.296V5.616H23.386V7.296H25.386ZM24.386 6.616H25.538V4.616H24.386V6.616ZM25.538 6.616C26.0004 6.616 26.6724 6.54374 27.1213 6.04496L25.6347 4.70703C25.7253 4.60638 25.8065 4.58843 25.7853 4.59448C25.7771 4.59681 25.7535 4.60257 25.7103 4.60754C25.6675 4.61247 25.6107 4.616 25.538 4.616V6.616ZM27.1179 6.04867C27.5323 5.59285 27.618 4.98268 27.618 4.488H25.618C25.618 4.63695 25.6031 4.72227 25.5926 4.76109C25.5824 4.7988 25.585 4.76173 25.6381 4.70333L27.1179 6.04867ZM27.618 4.488V2.184H25.618V4.488H27.618ZM26.618 3.184H28.346V1.184H26.618V3.184ZM27.346 2.184V5.616H29.346V2.184H27.346ZM28.346 6.616H31.058V4.616H28.346V6.616ZM30.058 5.616V7.296H32.058V5.616H30.058ZM31.058 6.296H28.346V8.296H31.058V6.296ZM27.346 7.296V16.32H29.346V7.296H27.346ZM28.346 17.32H30.866V15.32H28.346V17.32ZM29.866 16.32V18H31.866V16.32H29.866ZM30.866 17H28.466V19H30.866V17ZM37.1223 17.832L36.7101 18.7431L36.7181 18.7467L37.1223 17.832ZM35.3703 16.536L34.6021 17.1762L34.6117 17.1878L34.6217 17.199L35.3703 16.536ZM34.2423 14.496L33.2899 14.8008L33.2936 14.8123L33.2976 14.8238L34.2423 14.496ZM34.2423 9.144L33.2955 8.8221L33.2926 8.83063L33.2899 8.83922L34.2423 9.144ZM35.3703 7.104L34.6125 6.45147L34.6111 6.45321L35.3703 7.104ZM37.1223 5.784L36.7181 4.86928L36.7101 4.87289L37.1223 5.784ZM41.6583 5.784L41.2379 6.69131L41.2379 6.69131L41.6583 5.784ZM43.3383 7.056L42.5775 7.70495L42.5823 7.71057L42.5871 7.71611L43.3383 7.056ZM44.3943 8.952L43.4436 9.26202L43.4466 9.2713L43.4498 9.28052L44.3943 8.952ZM44.7783 12.288V13.288H45.7783V12.288H44.7783ZM35.8743 12.288V11.288H34.8743V12.288H35.8743ZM36.1143 14.352L35.1689 14.678L35.1758 14.698L35.1836 14.7177L36.1143 14.352ZM36.8343 15.528L36.0928 16.1989L36.1014 16.2084L36.1102 16.2177L36.8343 15.528ZM37.9863 16.32L37.5924 17.2392L37.604 17.244L37.9863 16.32ZM41.5863 16.056L41.0583 15.2066L41.0479 15.2133L41.5863 16.056ZM42.9543 14.472L43.5382 13.6602L42.5572 12.9546L42.0476 14.0503L42.9543 14.472ZM44.3223 15.456L45.2267 15.8826L45.5817 15.1301L44.9062 14.6442L44.3223 15.456ZM42.4503 17.52L42.9672 18.3761L42.9789 18.3689L42.4503 17.52ZM37.9863 7.224L38.3636 8.15009L38.3781 8.14418L38.3925 8.13781L37.9863 7.224ZM36.8583 7.992L36.1342 7.30234L36.1254 7.3116L36.1168 7.32109L36.8583 7.992ZM36.1383 9.192L37.0691 9.55768L37.0733 9.54665L36.1383 9.192ZM35.8743 10.848H34.8743V11.848H35.8743V10.848ZM42.7143 10.848V11.848H43.7143V10.848H42.7143ZM41.8023 7.944L41.052 8.60503L41.0603 8.6145L41.0689 8.62376L41.8023 7.944ZM39.4263 17.288C38.6998 17.288 38.0719 17.1583 37.5265 16.9173L36.7181 18.7467C37.5487 19.1137 38.4569 19.288 39.4263 19.288V17.288ZM37.5345 16.9209C36.9927 16.6758 36.5229 16.329 36.1189 15.873L34.6217 17.199C35.2098 17.863 35.9079 18.3802 36.7101 18.7431L37.5345 16.9209ZM36.1385 15.8958C35.7436 15.4218 35.4238 14.8504 35.1871 14.1682L33.2976 14.8238C33.6049 15.7096 34.0371 16.4982 34.6021 17.1762L36.1385 15.8958ZM35.1947 14.1912C34.9754 13.5057 34.8583 12.7148 34.8583 11.808H32.8583C32.8583 12.8852 32.9973 13.8863 33.2899 14.8008L35.1947 14.1912ZM34.8583 11.808C34.8583 10.9191 34.9749 10.1358 35.1947 9.44878L33.2899 8.83922C32.9977 9.75221 32.8583 10.7449 32.8583 11.808H34.8583ZM35.1891 9.4659C35.426 8.76908 35.7436 8.20507 36.1296 7.75479L34.6111 6.45321C34.037 7.12293 33.6026 7.91892 33.2955 8.8221L35.1891 9.4659ZM36.1281 7.75652C36.5321 7.28738 36.9992 6.93724 37.5345 6.69511L36.7101 4.87289C35.9014 5.23876 35.2006 5.76862 34.6125 6.45148L36.1281 7.75652ZM37.5265 6.69869C38.0719 6.4577 38.6998 6.328 39.4263 6.328V4.328C38.4569 4.328 37.5487 4.5023 36.7181 4.86931L37.5265 6.69869ZM39.4263 6.328C40.1349 6.328 40.7321 6.45693 41.2379 6.69131L42.0788 4.87669C41.2725 4.50307 40.3817 4.328 39.4263 4.328V6.328ZM41.2379 6.69131C41.7646 6.93542 42.2081 7.27185 42.5775 7.70495L44.0991 6.40705C43.5406 5.75215 42.864 5.24058 42.0788 4.87669L41.2379 6.69131ZM42.5871 7.71611C42.9529 8.13227 43.2414 8.6419 43.4436 9.26202L45.345 8.64198C45.0673 7.7901 44.6518 7.03573 44.0895 6.39589L42.5871 7.71611ZM43.4498 9.28052C43.6647 9.89818 43.7783 10.5935 43.7783 11.376H45.7783C45.7783 10.3985 45.636 9.47781 45.3388 8.62348L43.4498 9.28052ZM43.7783 11.376V12.288H45.7783V11.376H43.7783ZM44.7783 11.288H35.8743V13.288H44.7783V11.288ZM34.8743 12.288V12.864H36.8743V12.288H34.8743ZM34.8743 12.864C34.8743 13.4945 34.9701 14.1014 35.1689 14.678L37.0597 14.026C36.9385 13.6746 36.8743 13.2895 36.8743 12.864H34.8743ZM35.1836 14.7177C35.4009 15.2709 35.7029 15.768 36.0928 16.1989L37.5758 14.8571C37.3578 14.616 37.1797 14.3291 37.0451 13.9863L35.1836 14.7177ZM36.1102 16.2177C36.5283 16.6566 37.0263 16.9965 37.5924 17.2391L38.3802 15.4009C38.0503 15.2595 37.7804 15.0714 37.5585 14.8383L36.1102 16.2177ZM37.604 17.244C38.2057 17.493 38.8582 17.608 39.5463 17.608V15.608C39.0824 15.608 38.6949 15.531 38.3687 15.396L37.604 17.244ZM39.5463 17.608C40.4924 17.608 41.3653 17.3839 42.1247 16.8987L41.0479 15.2133C40.6553 15.4641 40.1683 15.608 39.5463 15.608V17.608ZM42.1142 16.9053C42.886 16.4255 43.4666 15.7418 43.861 14.8937L42.0476 14.0503C41.802 14.5782 41.4706 14.9505 41.0584 15.2067L42.1142 16.9053ZM42.3704 15.2838L43.7384 16.2678L44.9062 14.6442L43.5382 13.6602L42.3704 15.2838ZM43.4179 15.0294C43.1054 15.6919 42.6176 16.2378 41.9218 16.6711L42.9789 18.3689C43.979 17.7462 44.7392 16.9161 45.2267 15.8826L43.4179 15.0294ZM41.9334 16.6639C41.2674 17.0661 40.4451 17.288 39.4263 17.288V19.288C40.7435 19.288 41.9372 18.9979 42.9672 18.3761L41.9334 16.6639ZM39.4263 5.936C38.7748 5.936 38.1542 6.05505 37.5802 6.31019L38.3925 8.13781C38.6824 8.00894 39.0218 7.936 39.4263 7.936V5.936ZM37.609 6.29791C37.0467 6.527 36.5523 6.86332 36.1342 7.30234L37.5825 8.68165C37.8043 8.44868 38.0619 8.273 38.3636 8.15009L37.609 6.29791ZM36.1168 7.32109C35.7215 7.75796 35.4193 8.26791 35.2033 8.83735L37.0733 9.54665C37.2093 9.18809 37.3871 8.89804 37.5998 8.66291L36.1168 7.32109ZM35.2076 8.82635C34.9802 9.405 34.8743 10.027 34.8743 10.68H36.8743C36.8743 10.245 36.9444 9.875 37.0691 9.55765L35.2076 8.82635ZM34.8743 10.68V10.848H36.8743V10.68H34.8743ZM35.8743 11.848H42.7143V9.848H35.8743V11.848ZM43.7143 10.848V10.584H41.7143V10.848H43.7143ZM43.7143 10.584C43.7143 9.28984 43.353 8.14602 42.5357 7.26423L41.0689 8.62376C41.4676 9.05398 41.7143 9.67016 41.7143 10.584H43.7143ZM42.5527 7.28297C41.7491 6.37079 40.6709 5.936 39.4263 5.936V7.936C40.1657 7.936 40.6715 8.17321 41.052 8.60503L42.5527 7.28297ZM48.6622 18H47.6622V19H48.6622V18ZM48.6622 5.616V4.616H47.6622V5.616H48.6622ZM50.5822 5.616H51.5822V4.616H50.5822V5.616ZM50.5822 7.896H49.5822V8.896H50.5822V7.896ZM50.7022 7.896V8.896H51.393L51.6375 8.24989L50.7022 7.896ZM51.9022 6.312L52.5295 7.09075L52.5295 7.09075L51.9022 6.312ZM55.0222 5.616H56.0222V4.616H55.0222V5.616ZM55.0222 7.536V8.536H56.0222V7.536H55.0222ZM51.4462 8.136L52.0009 8.96807L52.006 8.96459L51.4462 8.136ZM50.5822 18V19H51.5822V18H50.5822ZM49.6622 18V5.616H47.6622V18H49.6622ZM48.6622 6.616H50.5822V4.616H48.6622V6.616ZM49.5822 5.616V7.896H51.5822V5.616H49.5822ZM50.5822 8.896H50.7022V6.896H50.5822V8.896ZM51.6375 8.24989C51.7885 7.85064 52.0685 7.4621 52.5295 7.09075L51.2749 5.53325C50.5838 6.0899 50.0638 6.75736 49.7669 7.54211L51.6375 8.24989ZM52.5295 7.09075C52.8728 6.81421 53.4161 6.616 54.2782 6.616V4.616C53.1243 4.616 52.0836 4.88179 51.2749 5.53325L52.5295 7.09075ZM54.2782 6.616H55.0222V4.616H54.2782V6.616ZM54.0222 5.616V7.536H56.0222V5.616H54.0222ZM55.0222 6.536H53.8942V8.536H55.0222V6.536ZM53.8942 6.536C52.7411 6.536 51.7031 6.75552 50.8863 7.30741L52.006 8.96459C52.3733 8.71648 52.9673 8.536 53.8942 8.536V6.536ZM50.8915 7.30395C50.0919 7.83703 49.5822 8.61298 49.5822 9.6H51.5822C51.5822 9.40302 51.6485 9.20297 52.0009 8.96805L50.8915 7.30395ZM49.5822 9.6V18H51.5822V9.6H49.5822ZM50.5822 17H48.6622V19H50.5822V17ZM58.6987 17.448L57.9461 18.1065L57.9607 18.1232L57.976 18.1392L58.6987 17.448ZM58.1947 0.24V-0.76H57.1947V0.24H58.1947ZM60.1147 0.24H61.1147V-0.76H60.1147V0.24ZM60.1147 16.32H59.1147V17.32H60.1147V16.32ZM61.9387 16.32H62.9387V15.32H61.9387V16.32ZM61.9387 18V19H62.9387V18H61.9387ZM60.2347 17C59.7445 17 59.5298 16.8702 59.4213 16.7568L57.976 18.1392C58.5715 18.7618 59.3808 19 60.2347 19V17ZM59.4513 16.7895C59.2954 16.6114 59.1947 16.3751 59.1947 16.008H57.1947C57.1947 16.7929 57.4299 17.5166 57.9461 18.1065L59.4513 16.7895ZM59.1947 16.008V0.24H57.1947V16.008H59.1947ZM58.1947 1.24H60.1147V-0.76H58.1947V1.24ZM59.1147 0.24V16.32H61.1147V0.24H59.1147ZM60.1147 17.32H61.9387V15.32H60.1147V17.32ZM60.9387 16.32V18H62.9387V16.32H60.9387ZM61.9387 17H60.2347V19H61.9387V17ZM65.5017 2.424L64.7384 3.06994L64.7652 3.10169L64.7946 3.1311L65.5017 2.424ZM65.5017 0.551999L64.7669 -0.126287L64.7646 -0.123725L65.5017 0.551999ZM67.3017 0.551999L66.5384 1.19794L66.5652 1.22969L66.5946 1.2591L67.3017 0.551999ZM67.3017 2.424L66.5669 1.74571L66.5646 1.74828L67.3017 2.424ZM65.4537 5.616V4.616H64.4537V5.616H65.4537ZM67.3737 5.616H68.3737V4.616H67.3737V5.616ZM67.3737 18V19H68.3737V18H67.3737ZM65.4537 18H64.4537V19H65.4537V18ZM66.4137 1.712C66.2786 1.712 66.205 1.69592 66.1749 1.68642C66.1494 1.67837 66.1731 1.68109 66.2089 1.71689L64.7946 3.1311C65.2534 3.58985 65.8708 3.712 66.4137 3.712V1.712ZM66.2651 1.77806C66.2611 1.77327 66.2571 1.76771 66.2524 1.75377C66.2471 1.73773 66.2377 1.70033 66.2377 1.632H64.2377C64.2377 2.14514 64.3837 2.65082 64.7384 3.06994L66.2651 1.77806ZM66.2377 1.632V1.32H64.2377V1.632H66.2377ZM66.2377 1.32C66.2377 1.25098 66.2473 1.21939 66.2494 1.21308C66.2505 1.21001 66.2503 1.21147 66.2478 1.21569C66.2452 1.22 66.242 1.2243 66.2389 1.22772L64.7646 -0.123725C64.383 0.292593 64.2377 0.809767 64.2377 1.32H66.2377ZM66.2366 1.23028C66.2054 1.264 66.1811 1.26975 66.1974 1.26416C66.2197 1.25655 66.2852 1.24 66.4137 1.24V-0.76C65.8509 -0.76 65.2224 -0.619678 64.7669 -0.126283L66.2366 1.23028ZM66.4137 1.24C66.5434 1.24 66.6031 1.25685 66.6163 1.26146C66.6211 1.26314 66.6123 1.26065 66.5958 1.24972C66.5786 1.23836 66.558 1.22119 66.5384 1.19794L68.0651 -0.0939448C67.6173 -0.623248 66.9677 -0.76 66.4137 -0.76V1.24ZM66.5946 1.2591C66.5931 1.2576 66.5899 1.25401 66.5866 1.24876C66.5832 1.24352 66.5817 1.23975 66.5814 1.23912C66.5808 1.23749 66.5897 1.25986 66.5897 1.32H68.5897C68.5897 0.785743 68.4216 0.257628 68.0089 -0.155108L66.5946 1.2591ZM66.5897 1.32V1.632H68.5897V1.32H66.5897ZM66.5897 1.632C66.5897 1.69146 66.581 1.7199 66.578 1.72826C66.5756 1.73461 66.5737 1.73842 66.5669 1.74572L68.0366 3.10228C68.4216 2.68515 68.5897 2.16807 68.5897 1.632H66.5897ZM66.5646 1.74828C66.6141 1.69427 66.655 1.68367 66.6392 1.68878C66.618 1.69565 66.55 1.712 66.4137 1.712V3.712C66.9467 3.712 67.5858 3.59402 68.0389 3.09972L66.5646 1.74828ZM65.4537 6.616H67.3737V4.616H65.4537V6.616ZM66.3737 5.616V18H68.3737V5.616H66.3737ZM67.3737 17H65.4537V19H67.3737V17ZM66.4537 18V5.616H64.4537V18H66.4537ZM72.1738 18H71.1738V19H72.1738V18ZM72.1738 5.616V4.616H71.1738V5.616H72.1738ZM74.0938 5.616H75.0938V4.616H74.0938V5.616ZM74.0938 7.632H73.0938V8.632H74.0938V7.632ZM74.1898 7.632V8.632H74.8472L75.1078 8.02844L74.1898 7.632ZM75.4618 5.952L74.8654 5.14918L74.8543 5.15764L75.4618 5.952ZM80.7178 6.576L79.9688 7.23857L79.9755 7.2462L79.9824 7.25368L80.7178 6.576ZM81.8458 18V19H82.8458V18H81.8458ZM79.9258 18H78.9258V19H79.9258V18ZM75.9898 7.2L75.7373 6.23232L75.7266 6.23524L75.9898 7.2ZM75.0298 7.632L75.5845 8.46405L75.5845 8.46405L75.0298 7.632ZM74.3338 8.376L73.4683 7.87496L73.4639 7.88262L73.4596 7.89036L74.3338 8.376ZM74.0938 18V19H75.0938V18H74.0938ZM73.1738 18V5.616H71.1738V18H73.1738ZM72.1738 6.616H74.0938V4.616H72.1738V6.616ZM73.0938 5.616V7.632H75.0938V5.616H73.0938ZM74.0938 8.632H74.1898V6.632H74.0938V8.632ZM75.1078 8.02844C75.3523 7.46229 75.6767 7.04648 76.0692 6.74636L74.8543 5.15764C74.1588 5.68952 73.6352 6.39371 73.2717 7.23556L75.1078 8.02844ZM76.0581 6.75474C76.3966 6.50328 76.9101 6.328 77.6938 6.328V4.328C76.6214 4.328 75.6469 4.56872 74.8654 5.14926L76.0581 6.75474ZM77.6938 6.328C78.7355 6.328 79.4523 6.65481 79.9688 7.23857L81.4667 5.91343C80.5112 4.83319 79.212 4.328 77.6938 4.328V6.328ZM79.9824 7.25368C80.5115 7.82778 80.8458 8.71257 80.8458 10.056H82.8458C82.8458 8.39143 82.428 6.95622 81.4531 5.89832L79.9824 7.25368ZM80.8458 10.056V18H82.8458V10.056H80.8458ZM81.8458 17H79.9258V19H81.8458V17ZM80.9258 18V10.392H78.9258V18H80.9258ZM80.9258 10.392C80.9258 9.16386 80.6709 8.05641 79.9888 7.24603C79.2789 6.40265 78.2574 6.056 77.1178 6.056V8.056C77.8501 8.056 78.2326 8.26534 78.4587 8.53397C78.7126 8.83559 78.9258 9.39614 78.9258 10.392H80.9258ZM77.1178 6.056C76.6494 6.056 76.1885 6.11467 75.7373 6.23238L76.2422 8.16762C76.527 8.09333 76.8181 8.056 77.1178 8.056V6.056ZM75.7266 6.23524C75.2766 6.35798 74.8572 6.54517 74.4751 6.79995L75.5845 8.46405C75.7783 8.33483 75.9989 8.23402 76.2529 8.16476L75.7266 6.23524ZM74.4751 6.79995C74.0575 7.0783 73.72 7.4403 73.4683 7.87496L75.1992 8.87704C75.2995 8.70369 75.426 8.56969 75.5845 8.46405L74.4751 6.79995ZM73.4596 7.89036C73.2011 8.35562 73.0938 8.87423 73.0938 9.408H75.0938C75.0938 9.14177 75.1464 8.97238 75.2079 8.86164L73.4596 7.89036ZM73.0938 9.408V18H75.0938V9.408H73.0938ZM74.0938 17H72.1738V19H74.0938V17ZM86.5344 0.24V-0.76H85.5344V0.24H86.5344ZM88.4544 0.24H89.4544V-0.76H88.4544V0.24ZM88.4544 11.496H87.4544V12.496H88.4544V11.496ZM88.5504 11.496V12.496H88.9965L89.2945 12.164L88.5504 11.496ZM90.4464 9.384L89.7141 8.70301L89.7081 8.70944L89.7022 8.71597L90.4464 9.384ZM93.9504 5.616V4.616H93.5147L93.2181 4.93501L93.9504 5.616ZM96.2784 5.616L97.0084 6.29946L98.5845 4.616H96.2784V5.616ZM91.6944 10.512L90.9644 9.82854L90.4202 10.4098L90.8648 11.0704L91.6944 10.512ZM96.7344 18V19H98.6129L97.564 17.4416L96.7344 18ZM94.4064 18L93.568 18.5451L93.8638 19H94.4064V18ZM90.3024 11.688L91.1407 11.1429L90.4591 10.0945L89.5863 10.99L90.3024 11.688ZM88.4544 13.584L87.7383 12.886L87.4544 13.1773V13.584H88.4544ZM88.4544 18V19H89.4544V18H88.4544ZM86.5344 18H85.5344V19H86.5344V18ZM86.5344 1.24H88.4544V-0.76H86.5344V1.24ZM87.4544 0.24V11.496H89.4544V0.24H87.4544ZM88.4544 12.496H88.5504V10.496H88.4544V12.496ZM89.2945 12.164L91.1905 10.052L89.7022 8.71597L87.8062 10.828L89.2945 12.164ZM91.1787 10.065L94.6827 6.29699L93.2181 4.93501L89.7141 8.70301L91.1787 10.065ZM93.9504 6.616H96.2784V4.616H93.9504V6.616ZM95.5484 4.93253L90.9644 9.82854L92.4244 11.1955L97.0084 6.29946L95.5484 4.93253ZM90.8648 11.0704L95.9048 18.5584L97.564 17.4416L92.524 9.95362L90.8648 11.0704ZM96.7344 17H94.4064V19H96.7344V17ZM95.2447 17.4549L91.1407 11.1429L89.464 12.2331L93.568 18.5451L95.2447 17.4549ZM89.5863 10.99L87.7383 12.886L89.1705 14.282L91.0185 12.386L89.5863 10.99ZM87.4544 13.584V18H89.4544V13.584H87.4544ZM88.4544 17H86.5344V19H88.4544V17ZM87.5344 18V0.24H85.5344V18H87.5344Z" fill="black" mask="url(#path-1-outside-1_211_90)"/>
</svg>
