<svg width="225" height="80" viewBox="0 0 225 80" fill="none" xmlns="http://www.w3.org/2000/svg">
<mask id="path-1-outside-1_212_101" maskUnits="userSpaceOnUse" x="31" y="21" width="139" height="30" fill="black">
<rect fill="white" x="31" y="21" width="139" height="30"/>
<path d="M32.16 49V46.48H35.688V26.392H32.16V23.872H42.24V26.392H38.712V46.48H42.24V49H32.16ZM47.4741 49V30.424H50.3541V33.448H50.4981C50.9541 32.392 51.5901 31.552 52.4061 30.928C53.2461 30.304 54.3621 29.992 55.7541 29.992C57.6741 29.992 59.1861 30.616 60.2901 31.864C61.4181 33.088 61.9821 34.828 61.9821 37.084V49H59.1021V37.588C59.1021 34.252 57.6981 32.584 54.8901 32.584C54.3141 32.584 53.7501 32.656 53.1981 32.8C52.6701 32.944 52.1901 33.16 51.7581 33.448C51.3261 33.736 50.9781 34.108 50.7141 34.564C50.4741 34.996 50.3541 35.512 50.3541 36.112V49H47.4741ZM72.039 49C71.031 49 70.263 48.724 69.735 48.172C69.231 47.596 68.979 46.852 68.979 45.94V32.944H65.919V30.424H67.647C68.271 30.424 68.691 30.304 68.907 30.064C69.147 29.8 69.267 29.356 69.267 28.732V25.276H71.859V30.424H75.927V32.944H71.859V46.48H75.639V49H72.039ZM87.3995 49.432C86.1275 49.432 84.9755 49.204 83.9435 48.748C82.9355 48.292 82.0595 47.644 81.3155 46.804C80.5955 45.94 80.0315 44.92 79.6235 43.744C79.2395 42.544 79.0475 41.2 79.0475 39.712C79.0475 38.248 79.2395 36.916 79.6235 35.716C80.0315 34.516 80.5955 33.496 81.3155 32.656C82.0595 31.792 82.9355 31.132 83.9435 30.676C84.9755 30.22 86.1275 29.992 87.3995 29.992C88.6475 29.992 89.7635 30.22 90.7475 30.676C91.7315 31.132 92.5715 31.768 93.2675 32.584C93.9635 33.376 94.4915 34.324 94.8515 35.428C95.2355 36.532 95.4275 37.744 95.4275 39.064V40.432H82.0715V41.296C82.0715 42.088 82.1915 42.832 82.4315 43.528C82.6955 44.2 83.0555 44.788 83.5115 45.292C83.9915 45.796 84.5675 46.192 85.2395 46.48C85.9355 46.768 86.7155 46.912 87.5795 46.912C88.7555 46.912 89.7755 46.636 90.6395 46.084C91.5275 45.532 92.2115 44.74 92.6915 43.708L94.7435 45.184C94.1435 46.456 93.2075 47.488 91.9355 48.28C90.6635 49.048 89.1515 49.432 87.3995 49.432ZM87.3995 32.404C86.6075 32.404 85.8875 32.548 85.2395 32.836C84.5915 33.1 84.0275 33.484 83.5475 33.988C83.0915 34.492 82.7315 35.092 82.4675 35.788C82.2035 36.46 82.0715 37.204 82.0715 38.02V38.272H92.3315V37.876C92.3315 36.22 91.8755 34.9 90.9635 33.916C90.0755 32.908 88.8875 32.404 87.3995 32.404ZM100.173 49V30.424H103.053V33.844H103.233C103.569 32.956 104.169 32.164 105.033 31.468C105.897 30.772 107.085 30.424 108.597 30.424H109.713V33.304H108.021C106.461 33.304 105.237 33.604 104.349 34.204C103.485 34.78 103.053 35.512 103.053 36.4V49H100.173ZM116.452 49C115.444 49 114.676 48.724 114.148 48.172C113.644 47.596 113.392 46.876 113.392 46.012V22.36H116.272V46.48H119.008V49H116.452ZM124.641 26.068C124.017 26.068 123.561 25.924 123.273 25.636C123.009 25.324 122.877 24.928 122.877 24.448V23.98C122.877 23.5 123.009 23.116 123.273 22.828C123.561 22.516 124.017 22.36 124.641 22.36C125.265 22.36 125.709 22.516 125.973 22.828C126.261 23.116 126.405 23.5 126.405 23.98V24.448C126.405 24.928 126.261 25.324 125.973 25.636C125.709 25.924 125.265 26.068 124.641 26.068ZM123.201 30.424H126.081V49H123.201V30.424ZM132.201 49V30.424H135.081V33.448H135.225C135.681 32.392 136.317 31.552 137.133 30.928C137.973 30.304 139.089 29.992 140.481 29.992C142.401 29.992 143.913 30.616 145.017 31.864C146.145 33.088 146.709 34.828 146.709 37.084V49H143.829V37.588C143.829 34.252 142.425 32.584 139.617 32.584C139.041 32.584 138.477 32.656 137.925 32.8C137.397 32.944 136.917 33.16 136.485 33.448C136.053 33.736 135.705 34.108 135.441 34.564C135.201 34.996 135.081 35.512 135.081 36.112V49H132.201ZM152.662 22.36H155.542V39.244H155.686L158.53 36.076L163.786 30.424H167.278L160.402 37.768L167.962 49H164.47L158.314 39.532L155.542 42.376V49H152.662V22.36Z"/>
</mask>
<path d="M32.16 49V46.48H35.688V26.392H32.16V23.872H42.24V26.392H38.712V46.48H42.24V49H32.16ZM47.4741 49V30.424H50.3541V33.448H50.4981C50.9541 32.392 51.5901 31.552 52.4061 30.928C53.2461 30.304 54.3621 29.992 55.7541 29.992C57.6741 29.992 59.1861 30.616 60.2901 31.864C61.4181 33.088 61.9821 34.828 61.9821 37.084V49H59.1021V37.588C59.1021 34.252 57.6981 32.584 54.8901 32.584C54.3141 32.584 53.7501 32.656 53.1981 32.8C52.6701 32.944 52.1901 33.16 51.7581 33.448C51.3261 33.736 50.9781 34.108 50.7141 34.564C50.4741 34.996 50.3541 35.512 50.3541 36.112V49H47.4741ZM72.039 49C71.031 49 70.263 48.724 69.735 48.172C69.231 47.596 68.979 46.852 68.979 45.94V32.944H65.919V30.424H67.647C68.271 30.424 68.691 30.304 68.907 30.064C69.147 29.8 69.267 29.356 69.267 28.732V25.276H71.859V30.424H75.927V32.944H71.859V46.48H75.639V49H72.039ZM87.3995 49.432C86.1275 49.432 84.9755 49.204 83.9435 48.748C82.9355 48.292 82.0595 47.644 81.3155 46.804C80.5955 45.94 80.0315 44.92 79.6235 43.744C79.2395 42.544 79.0475 41.2 79.0475 39.712C79.0475 38.248 79.2395 36.916 79.6235 35.716C80.0315 34.516 80.5955 33.496 81.3155 32.656C82.0595 31.792 82.9355 31.132 83.9435 30.676C84.9755 30.22 86.1275 29.992 87.3995 29.992C88.6475 29.992 89.7635 30.22 90.7475 30.676C91.7315 31.132 92.5715 31.768 93.2675 32.584C93.9635 33.376 94.4915 34.324 94.8515 35.428C95.2355 36.532 95.4275 37.744 95.4275 39.064V40.432H82.0715V41.296C82.0715 42.088 82.1915 42.832 82.4315 43.528C82.6955 44.2 83.0555 44.788 83.5115 45.292C83.9915 45.796 84.5675 46.192 85.2395 46.48C85.9355 46.768 86.7155 46.912 87.5795 46.912C88.7555 46.912 89.7755 46.636 90.6395 46.084C91.5275 45.532 92.2115 44.74 92.6915 43.708L94.7435 45.184C94.1435 46.456 93.2075 47.488 91.9355 48.28C90.6635 49.048 89.1515 49.432 87.3995 49.432ZM87.3995 32.404C86.6075 32.404 85.8875 32.548 85.2395 32.836C84.5915 33.1 84.0275 33.484 83.5475 33.988C83.0915 34.492 82.7315 35.092 82.4675 35.788C82.2035 36.46 82.0715 37.204 82.0715 38.02V38.272H92.3315V37.876C92.3315 36.22 91.8755 34.9 90.9635 33.916C90.0755 32.908 88.8875 32.404 87.3995 32.404ZM100.173 49V30.424H103.053V33.844H103.233C103.569 32.956 104.169 32.164 105.033 31.468C105.897 30.772 107.085 30.424 108.597 30.424H109.713V33.304H108.021C106.461 33.304 105.237 33.604 104.349 34.204C103.485 34.78 103.053 35.512 103.053 36.4V49H100.173ZM116.452 49C115.444 49 114.676 48.724 114.148 48.172C113.644 47.596 113.392 46.876 113.392 46.012V22.36H116.272V46.48H119.008V49H116.452ZM124.641 26.068C124.017 26.068 123.561 25.924 123.273 25.636C123.009 25.324 122.877 24.928 122.877 24.448V23.98C122.877 23.5 123.009 23.116 123.273 22.828C123.561 22.516 124.017 22.36 124.641 22.36C125.265 22.36 125.709 22.516 125.973 22.828C126.261 23.116 126.405 23.5 126.405 23.98V24.448C126.405 24.928 126.261 25.324 125.973 25.636C125.709 25.924 125.265 26.068 124.641 26.068ZM123.201 30.424H126.081V49H123.201V30.424ZM132.201 49V30.424H135.081V33.448H135.225C135.681 32.392 136.317 31.552 137.133 30.928C137.973 30.304 139.089 29.992 140.481 29.992C142.401 29.992 143.913 30.616 145.017 31.864C146.145 33.088 146.709 34.828 146.709 37.084V49H143.829V37.588C143.829 34.252 142.425 32.584 139.617 32.584C139.041 32.584 138.477 32.656 137.925 32.8C137.397 32.944 136.917 33.16 136.485 33.448C136.053 33.736 135.705 34.108 135.441 34.564C135.201 34.996 135.081 35.512 135.081 36.112V49H132.201ZM152.662 22.36H155.542V39.244H155.686L158.53 36.076L163.786 30.424H167.278L160.402 37.768L167.962 49H164.47L158.314 39.532L155.542 42.376V49H152.662V22.36Z" fill="black"/>
<path d="M32.16 49H31.16V50H32.16V49ZM32.16 46.48V45.48H31.16V46.48H32.16ZM35.688 46.48V47.48H36.688V46.48H35.688ZM35.688 26.392H36.688V25.392H35.688V26.392ZM32.16 26.392H31.16V27.392H32.16V26.392ZM32.16 23.872V22.872H31.16V23.872H32.16ZM42.24 23.872H43.24V22.872H42.24V23.872ZM42.24 26.392V27.392H43.24V26.392H42.24ZM38.712 26.392V25.392H37.712V26.392H38.712ZM38.712 46.48H37.712V47.48H38.712V46.48ZM42.24 46.48H43.24V45.48H42.24V46.48ZM42.24 49V50H43.24V49H42.24ZM33.16 49V46.48H31.16V49H33.16ZM32.16 47.48H35.688V45.48H32.16V47.48ZM36.688 46.48V26.392H34.688V46.48H36.688ZM35.688 25.392H32.16V27.392H35.688V25.392ZM33.16 26.392V23.872H31.16V26.392H33.16ZM32.16 24.872H42.24V22.872H32.16V24.872ZM41.24 23.872V26.392H43.24V23.872H41.24ZM42.24 25.392H38.712V27.392H42.24V25.392ZM37.712 26.392V46.48H39.712V26.392H37.712ZM38.712 47.48H42.24V45.48H38.712V47.48ZM41.24 46.48V49H43.24V46.48H41.24ZM42.24 48H32.16V50H42.24V48ZM47.4741 49H46.4741V50H47.4741V49ZM47.4741 30.424V29.424H46.4741V30.424H47.4741ZM50.3541 30.424H51.3541V29.424H50.3541V30.424ZM50.3541 33.448H49.3541V34.448H50.3541V33.448ZM50.4981 33.448V34.448H51.1555L51.4161 33.8444L50.4981 33.448ZM52.4061 30.928L51.8097 30.1252L51.7986 30.1336L52.4061 30.928ZM60.2901 31.864L59.5411 32.5266L59.5478 32.5342L59.5547 32.5417L60.2901 31.864ZM61.9821 49V50H62.9821V49H61.9821ZM59.1021 49H58.1021V50H59.1021V49ZM53.1981 32.8L52.9456 31.8323L52.9349 31.8352L53.1981 32.8ZM51.7581 33.448L52.3128 34.2801L52.3128 34.28L51.7581 33.448ZM50.7141 34.564L49.8486 34.063L49.8442 34.0706L49.8399 34.0784L50.7141 34.564ZM50.3541 49V50H51.3541V49H50.3541ZM48.4741 49V30.424H46.4741V49H48.4741ZM47.4741 31.424H50.3541V29.424H47.4741V31.424ZM49.3541 30.424V33.448H51.3541V30.424H49.3541ZM50.3541 34.448H50.4981V32.448H50.3541V34.448ZM51.4161 33.8444C51.8126 32.9263 52.349 32.2305 53.0135 31.7224L51.7986 30.1336C50.8311 30.8735 50.0955 31.8577 49.58 33.0516L51.4161 33.8444ZM53.0024 31.7307C53.6209 31.2713 54.5064 30.992 55.7541 30.992V28.992C54.2177 28.992 52.8712 29.3367 51.8097 30.1253L53.0024 31.7307ZM55.7541 30.992C57.4358 30.992 58.6567 31.5268 59.5411 32.5266L61.0391 31.2014C59.7155 29.7052 57.9123 28.992 55.7541 28.992V30.992ZM59.5547 32.5417C60.4598 33.5238 60.9821 34.9886 60.9821 37.084H62.9821C62.9821 34.6674 62.3763 32.6522 61.0254 31.1863L59.5547 32.5417ZM60.9821 37.084V49H62.9821V37.084H60.9821ZM61.9821 48H59.1021V50H61.9821V48ZM60.1021 49V37.588H58.1021V49H60.1021ZM60.1021 37.588C60.1021 35.8039 59.7302 34.2794 58.8141 33.191C57.8702 32.0697 56.4977 31.584 54.8901 31.584V33.584C56.0904 33.584 56.8239 33.9323 57.284 34.479C57.7719 35.0586 58.1021 36.0361 58.1021 37.588H60.1021ZM54.8901 31.584C54.2297 31.584 53.5809 31.6667 52.9456 31.8324L53.4505 33.7676C53.9193 33.6453 54.3984 33.584 54.8901 33.584V31.584ZM52.9349 31.8352C52.3089 32.006 51.7295 32.2652 51.2034 32.6159L52.3128 34.28C52.6506 34.0548 53.0312 33.882 53.4612 33.7648L52.9349 31.8352ZM51.2034 32.6159C50.6418 32.9903 50.1883 33.4763 49.8486 34.063L51.5795 35.065C51.7678 34.7397 52.0103 34.4817 52.3128 34.2801L51.2034 32.6159ZM49.8399 34.0784C49.5014 34.6876 49.3541 35.3782 49.3541 36.112H51.3541C51.3541 35.6458 51.4467 35.3044 51.5882 35.0496L49.8399 34.0784ZM49.3541 36.112V49H51.3541V36.112H49.3541ZM50.3541 48H47.4741V50H50.3541V48ZM69.735 48.172L68.9824 48.8305L68.997 48.8472L69.0124 48.8632L69.735 48.172ZM68.979 32.944H69.979V31.944H68.979V32.944ZM65.919 32.944H64.919V33.944H65.919V32.944ZM65.919 30.424V29.424H64.919V30.424H65.919ZM68.907 30.064L68.1671 29.3913L68.1637 29.395L68.907 30.064ZM69.267 25.276V24.276H68.267V25.276H69.267ZM71.859 25.276H72.859V24.276H71.859V25.276ZM71.859 30.424H70.859V31.424H71.859V30.424ZM75.927 30.424H76.927V29.424H75.927V30.424ZM75.927 32.944V33.944H76.927V32.944H75.927ZM71.859 32.944V31.944H70.859V32.944H71.859ZM71.859 46.48H70.859V47.48H71.859V46.48ZM75.639 46.48H76.639V45.48H75.639V46.48ZM75.639 49V50H76.639V49H75.639ZM72.039 48C71.2128 48 70.7421 47.7782 70.4576 47.4808L69.0124 48.8632C69.7839 49.6698 70.8492 50 72.039 50V48ZM70.4876 47.5135C70.1725 47.1534 69.979 46.6586 69.979 45.94H67.979C67.979 47.0454 68.2895 48.0386 68.9824 48.8305L70.4876 47.5135ZM69.979 45.94V32.944H67.979V45.94H69.979ZM68.979 31.944H65.919V33.944H68.979V31.944ZM66.919 32.944V30.424H64.919V32.944H66.919ZM65.919 31.424H67.647V29.424H65.919V31.424ZM67.647 31.424C68.3174 31.424 69.1294 31.3117 69.6503 30.733L68.1637 29.395C68.2183 29.3344 68.2465 29.3464 68.1553 29.3725C68.0638 29.3986 67.9023 29.424 67.647 29.424V31.424ZM69.6469 30.7367C70.1413 30.1929 70.267 29.4347 70.267 28.732H68.267C68.267 28.985 68.2421 29.1593 68.2116 29.2721C68.1814 29.3838 68.154 29.4057 68.1671 29.3913L69.6469 30.7367ZM70.267 28.732V25.276H68.267V28.732H70.267ZM69.267 26.276H71.859V24.276H69.267V26.276ZM70.859 25.276V30.424H72.859V25.276H70.859ZM71.859 31.424H75.927V29.424H71.859V31.424ZM74.927 30.424V32.944H76.927V30.424H74.927ZM75.927 31.944H71.859V33.944H75.927V31.944ZM70.859 32.944V46.48H72.859V32.944H70.859ZM71.859 47.48H75.639V45.48H71.859V47.48ZM74.639 46.48V49H76.639V46.48H74.639ZM75.639 48H72.039V50H75.639V48ZM83.9435 48.748L83.5313 49.6591L83.5393 49.6627L83.9435 48.748ZM81.3155 46.804L80.5472 47.4442L80.5569 47.4558L80.5669 47.467L81.3155 46.804ZM79.6235 43.744L78.671 44.0488L78.6747 44.0603L78.6787 44.0718L79.6235 43.744ZM79.6235 35.716L78.6767 35.3941L78.6738 35.4026L78.671 35.4112L79.6235 35.716ZM81.3155 32.656L80.5577 32.0035L80.5562 32.0052L81.3155 32.656ZM83.9435 30.676L83.5393 29.7613L83.5313 29.7649L83.9435 30.676ZM90.7475 30.676L90.327 31.5833L90.327 31.5833L90.7475 30.676ZM93.2675 32.584L92.5066 33.2329L92.5114 33.2386L92.5163 33.2441L93.2675 32.584ZM94.8515 35.428L93.9007 35.738L93.9038 35.7473L93.907 35.7565L94.8515 35.428ZM95.4275 40.432V41.432H96.4275V40.432H95.4275ZM82.0715 40.432V39.432H81.0715V40.432H82.0715ZM82.4315 43.528L81.4861 43.854L81.493 43.874L81.5007 43.8937L82.4315 43.528ZM83.5115 45.292L82.7699 45.9629L82.7785 45.9724L82.7873 45.9817L83.5115 45.292ZM85.2395 46.48L84.8455 47.3992L84.8571 47.404L85.2395 46.48ZM90.6395 46.084L90.1115 45.2346L90.1011 45.2413L90.6395 46.084ZM92.6915 43.708L93.2754 42.8962L92.2944 42.1906L91.7847 43.2863L92.6915 43.708ZM94.7435 45.184L95.6479 45.6106L96.0029 44.8581L95.3274 44.3722L94.7435 45.184ZM91.9355 48.28L92.4524 49.1361L92.464 49.1289L91.9355 48.28ZM85.2395 32.836L85.6168 33.7621L85.6313 33.7562L85.6456 33.7498L85.2395 32.836ZM83.5475 33.988L82.8233 33.2983L82.8145 33.3076L82.8059 33.3171L83.5475 33.988ZM82.4675 35.788L83.3983 36.1537L83.4025 36.1427L82.4675 35.788ZM82.0715 38.272H81.0715V39.272H82.0715V38.272ZM92.3315 38.272V39.272H93.3315V38.272H92.3315ZM90.9635 33.916L90.2131 34.577L90.2215 34.5865L90.23 34.5958L90.9635 33.916ZM87.3995 48.432C86.2489 48.432 85.237 48.2263 84.3476 47.8333L83.5393 49.6627C84.7139 50.1817 86.006 50.432 87.3995 50.432V48.432ZM84.3556 47.8369C83.4779 47.4398 82.716 46.877 82.0641 46.141L80.5669 47.467C81.4029 48.411 82.3931 49.1442 83.5313 49.6591L84.3556 47.8369ZM82.0837 46.1638C81.4487 45.4018 80.9409 44.4904 80.5682 43.4162L78.6787 44.0718C79.122 45.3496 79.7422 46.4782 80.5472 47.4442L82.0837 46.1638ZM80.5759 43.4392C80.2285 42.3537 80.0475 41.1148 80.0475 39.712H78.0475C78.0475 41.2852 78.2504 42.7343 78.671 44.0488L80.5759 43.4392ZM80.0475 39.712C80.0475 38.3351 80.228 37.1078 80.5759 36.0208L78.671 35.4112C78.2509 36.7242 78.0475 38.1609 78.0475 39.712H80.0475ZM80.5702 36.0379C80.9432 34.9411 81.4488 34.0371 82.0747 33.3068L80.5562 32.0052C79.7422 32.9549 79.1198 34.0909 78.6767 35.3941L80.5702 36.0379ZM82.0732 33.3085C82.7252 32.5514 83.4844 31.9812 84.3556 31.5871L83.5313 29.7649C82.3865 30.2828 81.3937 31.0326 80.5577 32.0035L82.0732 33.3085ZM84.3476 31.5907C85.237 31.1977 86.2489 30.992 87.3995 30.992V28.992C86.006 28.992 84.7139 29.2423 83.5393 29.7613L84.3476 31.5907ZM87.3995 30.992C88.5241 30.992 89.4932 31.1969 90.327 31.5833L91.1679 29.7687C90.0337 29.2431 88.7709 28.992 87.3995 28.992V30.992ZM90.327 31.5833C91.1818 31.9794 91.9052 32.5278 92.5066 33.2329L94.0283 31.9351C93.2377 31.0082 92.2812 30.2846 91.1679 29.7687L90.327 31.5833ZM92.5163 33.2441C93.114 33.9243 93.5785 34.7499 93.9007 35.738L95.8022 35.118C95.4044 33.8981 94.8129 32.8277 94.0186 31.9239L92.5163 33.2441ZM93.907 35.7565C94.2498 36.7422 94.4275 37.8415 94.4275 39.064H96.4275C96.4275 37.6465 96.2211 36.3218 95.796 35.0995L93.907 35.7565ZM94.4275 39.064V40.432H96.4275V39.064H94.4275ZM95.4275 39.432H82.0715V41.432H95.4275V39.432ZM81.0715 40.432V41.296H83.0715V40.432H81.0715ZM81.0715 41.296C81.0715 42.1905 81.2073 43.0454 81.4861 43.854L83.3768 43.202C83.1757 42.6186 83.0715 41.9855 83.0715 41.296H81.0715ZM81.5007 43.8937C81.8061 44.6709 82.228 45.364 82.7699 45.9629L84.253 44.6211C83.8829 44.212 83.5849 43.7291 83.3622 43.1623L81.5007 43.8937ZM82.7873 45.9817C83.3654 46.5886 84.0555 47.0605 84.8455 47.3991L85.6334 45.5609C85.0795 45.3235 84.6175 45.0034 84.2356 44.6023L82.7873 45.9817ZM84.8571 47.404C85.6909 47.749 86.6034 47.912 87.5795 47.912V45.912C86.8275 45.912 86.1801 45.787 85.6218 45.556L84.8571 47.404ZM87.5795 47.912C88.9175 47.912 90.1305 47.5959 91.1779 46.9267L90.1011 45.2413C89.4205 45.6761 88.5934 45.912 87.5795 45.912V47.912ZM91.1674 46.9333C92.2352 46.2695 93.0438 45.3218 93.5982 44.1297L91.7847 43.2863C91.3792 44.1582 90.8198 44.7945 90.1115 45.2347L91.1674 46.9333ZM92.1075 44.5198L94.1595 45.9958L95.3274 44.3722L93.2754 42.8962L92.1075 44.5198ZM93.839 44.7574C93.3266 45.8439 92.5268 46.7338 91.4069 47.4311L92.464 49.1289C93.8881 48.2422 94.9604 47.0681 95.6479 45.6106L93.839 44.7574ZM91.4186 47.4239C90.3286 48.0821 89.0023 48.432 87.3995 48.432V50.432C89.3007 50.432 90.9984 50.0139 92.4523 49.1361L91.4186 47.4239ZM87.3995 31.404C86.484 31.404 85.6234 31.5711 84.8333 31.9222L85.6456 33.7498C86.1516 33.5249 86.731 33.404 87.3995 33.404V31.404ZM84.8622 31.9099C84.0839 32.227 83.4015 32.6913 82.8233 33.2983L84.2716 34.6777C84.6535 34.2767 85.0991 33.973 85.6168 33.7621L84.8622 31.9099ZM82.8059 33.3171C82.2587 33.922 81.8365 34.6319 81.5325 35.4333L83.4025 36.1427C83.6265 35.5521 83.9243 35.062 84.289 34.6589L82.8059 33.3171ZM81.5367 35.4223C81.2214 36.225 81.0715 37.095 81.0715 38.02H83.0715C83.0715 37.313 83.1855 36.695 83.3982 36.1537L81.5367 35.4223ZM81.0715 38.02V38.272H83.0715V38.02H81.0715ZM82.0715 39.272H92.3315V37.272H82.0715V39.272ZM93.3315 38.272V37.876H91.3315V38.272H93.3315ZM93.3315 37.876C93.3315 36.0298 92.8182 34.446 91.6969 33.2362L90.23 34.5958C90.9328 35.354 91.3315 36.4102 91.3315 37.876H93.3315ZM91.7138 33.255C90.6142 32.0068 89.14 31.404 87.3995 31.404V33.404C88.6349 33.404 89.5367 33.8092 90.2131 34.577L91.7138 33.255ZM100.173 49H99.1733V50H100.173V49ZM100.173 30.424V29.424H99.1733V30.424H100.173ZM103.053 30.424H104.053V29.424H103.053V30.424ZM103.053 33.844H102.053V34.844H103.053V33.844ZM103.233 33.844V34.844H103.924L104.169 34.1979L103.233 33.844ZM105.033 31.468L105.661 32.2468L105.661 32.2468L105.033 31.468ZM109.713 30.424H110.713V29.424H109.713V30.424ZM109.713 33.304V34.304H110.713V33.304H109.713ZM104.349 34.204L104.904 35.0361L104.909 35.0326L104.349 34.204ZM103.053 49V50H104.053V49H103.053ZM101.173 49V30.424H99.1733V49H101.173ZM100.173 31.424H103.053V29.424H100.173V31.424ZM102.053 30.424V33.844H104.053V30.424H102.053ZM103.053 34.844H103.233V32.844H103.053V34.844ZM104.169 34.1979C104.432 33.5026 104.912 32.8501 105.661 32.2468L104.406 30.6892C103.427 31.4779 102.707 32.4094 102.298 33.4901L104.169 34.1979ZM105.661 32.2468C106.292 31.7382 107.231 31.424 108.597 31.424V29.424C106.939 29.424 105.503 29.8058 104.406 30.6892L105.661 32.2468ZM108.597 31.424H109.713V29.424H108.597V31.424ZM108.713 30.424V33.304H110.713V30.424H108.713ZM109.713 32.304H108.021V34.304H109.713V32.304ZM108.021 32.304C106.348 32.304 104.902 32.6235 103.789 33.3754L104.909 35.0326C105.572 34.5845 106.574 34.304 108.021 34.304V32.304ZM103.795 33.3719C102.707 34.097 102.053 35.117 102.053 36.4H104.053C104.053 35.907 104.264 35.463 104.904 35.036L103.795 33.3719ZM102.053 36.4V49H104.053V36.4H102.053ZM103.053 48H100.173V50H103.053V48ZM114.148 48.172L113.395 48.8305L113.41 48.8472L113.425 48.8632L114.148 48.172ZM113.392 22.36V21.36H112.392V22.36H113.392ZM116.272 22.36H117.272V21.36H116.272V22.36ZM116.272 46.48H115.272V47.48H116.272V46.48ZM119.008 46.48H120.008V45.48H119.008V46.48ZM119.008 49V50H120.008V49H119.008ZM116.452 48C115.626 48 115.155 47.7782 114.871 47.4808L113.425 48.8632C114.197 49.6698 115.262 50 116.452 50V48ZM114.901 47.5135C114.577 47.1434 114.392 46.6671 114.392 46.012H112.392C112.392 47.0849 112.711 48.0486 113.395 48.8305L114.901 47.5135ZM114.392 46.012V22.36H112.392V46.012H114.392ZM113.392 23.36H116.272V21.36H113.392V23.36ZM115.272 22.36V46.48H117.272V22.36H115.272ZM116.272 47.48H119.008V45.48H116.272V47.48ZM118.008 46.48V49H120.008V46.48H118.008ZM119.008 48H116.452V50H119.008V48ZM123.273 25.636L122.509 26.2819L122.536 26.3137L122.566 26.3431L123.273 25.636ZM123.273 22.828L122.538 22.1497L122.535 22.1523L123.273 22.828ZM125.973 22.828L125.209 23.4739L125.236 23.5057L125.266 23.5351L125.973 22.828ZM125.973 25.636L125.238 24.9577L125.235 24.9603L125.973 25.636ZM123.201 30.424V29.424H122.201V30.424H123.201ZM126.081 30.424H127.081V29.424H126.081V30.424ZM126.081 49V50H127.081V49H126.081ZM123.201 49H122.201V50H123.201V49ZM124.641 25.068C124.144 25.068 124.001 24.9501 123.98 24.9289L122.566 26.3431C123.12 26.8979 123.89 27.068 124.641 27.068V25.068ZM124.036 24.9901C123.951 24.8892 123.877 24.7349 123.877 24.448H121.877C121.877 25.1211 122.067 25.7588 122.509 26.2819L124.036 24.9901ZM123.877 24.448V23.98H121.877V24.448H123.877ZM123.877 23.98C123.877 23.6902 123.951 23.5674 124.01 23.5037L122.535 22.1523C122.066 22.6646 121.877 23.3098 121.877 23.98H123.877ZM124.007 23.5063C124.032 23.4797 124.163 23.36 124.641 23.36V21.36C123.87 21.36 123.089 21.5523 122.538 22.1497L124.007 23.5063ZM124.641 23.36C124.874 23.36 125.023 23.3898 125.11 23.4205C125.19 23.4485 125.209 23.4732 125.209 23.4739L126.736 22.1821C126.2 21.5488 125.403 21.36 124.641 21.36V23.36ZM125.266 23.5351C125.333 23.6024 125.405 23.7143 125.405 23.98H127.405C127.405 23.2857 127.188 22.6296 126.68 22.1209L125.266 23.5351ZM125.405 23.98V24.448H127.405V23.98H125.405ZM125.405 24.448C125.405 24.7119 125.333 24.8548 125.238 24.9577L126.707 26.3143C127.188 25.7931 127.405 25.1441 127.405 24.448H125.405ZM125.235 24.9603C125.249 24.946 125.148 25.068 124.641 25.068V27.068C125.382 27.068 126.169 26.902 126.71 26.3117L125.235 24.9603ZM123.201 31.424H126.081V29.424H123.201V31.424ZM125.081 30.424V49H127.081V30.424H125.081ZM126.081 48H123.201V50H126.081V48ZM124.201 49V30.424H122.201V49H124.201ZM132.201 49H131.201V50H132.201V49ZM132.201 30.424V29.424H131.201V30.424H132.201ZM135.081 30.424H136.081V29.424H135.081V30.424ZM135.081 33.448H134.081V34.448H135.081V33.448ZM135.225 33.448V34.448H135.882L136.143 33.8444L135.225 33.448ZM137.133 30.928L136.536 30.1252L136.525 30.1336L137.133 30.928ZM145.017 31.864L144.268 32.5266L144.274 32.5342L144.281 32.5417L145.017 31.864ZM146.709 49V50H147.709V49H146.709ZM143.829 49H142.829V50H143.829V49ZM137.925 32.8L137.672 31.8323L137.662 31.8352L137.925 32.8ZM136.485 33.448L137.039 34.2801L137.039 34.28L136.485 33.448ZM135.441 34.564L134.575 34.063L134.571 34.0706L134.566 34.0784L135.441 34.564ZM135.081 49V50H136.081V49H135.081ZM133.201 49V30.424H131.201V49H133.201ZM132.201 31.424H135.081V29.424H132.201V31.424ZM134.081 30.424V33.448H136.081V30.424H134.081ZM135.081 34.448H135.225V32.448H135.081V34.448ZM136.143 33.8444C136.539 32.9263 137.076 32.2305 137.74 31.7224L136.525 30.1336C135.558 30.8735 134.822 31.8577 134.307 33.0516L136.143 33.8444ZM137.729 31.7307C138.347 31.2713 139.233 30.992 140.481 30.992V28.992C138.944 28.992 137.598 29.3367 136.536 30.1253L137.729 31.7307ZM140.481 30.992C142.162 30.992 143.383 31.5268 144.268 32.5266L145.766 31.2014C144.442 29.7052 142.639 28.992 140.481 28.992V30.992ZM144.281 32.5417C145.186 33.5238 145.709 34.9886 145.709 37.084H147.709C147.709 34.6674 147.103 32.6522 145.752 31.1863L144.281 32.5417ZM145.709 37.084V49H147.709V37.084H145.709ZM146.709 48H143.829V50H146.709V48ZM144.829 49V37.588H142.829V49H144.829ZM144.829 37.588C144.829 35.8039 144.457 34.2794 143.541 33.191C142.597 32.0697 141.224 31.584 139.617 31.584V33.584C140.817 33.584 141.55 33.9323 142.011 34.479C142.498 35.0586 142.829 36.0361 142.829 37.588H144.829ZM139.617 31.584C138.956 31.584 138.307 31.6667 137.672 31.8324L138.177 33.7676C138.646 33.6453 139.125 33.584 139.617 33.584V31.584ZM137.662 31.8352C137.035 32.006 136.456 32.2652 135.93 32.6159L137.039 34.28C137.377 34.0548 137.758 33.882 138.188 33.7648L137.662 31.8352ZM135.93 32.6159C135.368 32.9903 134.915 33.4763 134.575 34.063L136.306 35.065C136.494 34.7397 136.737 34.4817 137.039 34.2801L135.93 32.6159ZM134.566 34.0784C134.228 34.6876 134.081 35.3782 134.081 36.112H136.081C136.081 35.6458 136.173 35.3044 136.315 35.0496L134.566 34.0784ZM134.081 36.112V49H136.081V36.112H134.081ZM135.081 48H132.201V50H135.081V48ZM152.662 22.36V21.36H151.662V22.36H152.662ZM155.542 22.36H156.542V21.36H155.542V22.36ZM155.542 39.244H154.542V40.244H155.542V39.244ZM155.686 39.244V40.244H156.132L156.43 39.912L155.686 39.244ZM158.53 36.076L157.797 35.395L157.791 35.4014L157.785 35.408L158.53 36.076ZM163.786 30.424V29.424H163.35L163.053 29.743L163.786 30.424ZM167.278 30.424L168.008 31.1075L169.584 29.424H167.278V30.424ZM160.402 37.768L159.672 37.0845L159.127 37.6658L159.572 38.3264L160.402 37.768ZM167.962 49V50H169.84L168.791 48.4416L167.962 49ZM164.47 49L163.631 49.5451L163.927 50H164.47V49ZM158.314 39.532L159.152 38.9869L158.47 37.9385L157.597 38.834L158.314 39.532ZM155.542 42.376L154.825 41.678L154.542 41.9693V42.376H155.542ZM155.542 49V50H156.542V49H155.542ZM152.662 49H151.662V50H152.662V49ZM152.662 23.36H155.542V21.36H152.662V23.36ZM154.542 22.36V39.244H156.542V22.36H154.542ZM155.542 40.244H155.686V38.244H155.542V40.244ZM156.43 39.912L159.274 36.744L157.785 35.408L154.941 38.576L156.43 39.912ZM159.262 36.757L164.518 31.105L163.053 29.743L157.797 35.395L159.262 36.757ZM163.786 31.424H167.278V29.424H163.786V31.424ZM166.548 29.7405L159.672 37.0845L161.132 38.4515L168.008 31.1075L166.548 29.7405ZM159.572 38.3264L167.132 49.5584L168.791 48.4416L161.231 37.2096L159.572 38.3264ZM167.962 48H164.47V50H167.962V48ZM165.308 48.4549L159.152 38.9869L157.475 40.0771L163.631 49.5451L165.308 48.4549ZM157.597 38.834L154.825 41.678L156.258 43.074L159.03 40.23L157.597 38.834ZM154.542 42.376V49H156.542V42.376H154.542ZM155.542 48H152.662V50H155.542V48ZM153.662 49V22.36H151.662V49H153.662Z" fill="black" mask="url(#path-1-outside-1_212_101)"/>
<path d="M101.53 21.6566C62.6971 6.82327 -11.1696 -13.9434 4.03044 21.6566" stroke="black" stroke-width="3"/>
<path d="M101 59.4874C140.718 71.758 215.781 87.6658 198.293 53.1323" stroke="black" stroke-width="3"/>
</svg>
