<svg width="50" height="50" viewBox="0 0 50 50" fill="none" xmlns="http://www.w3.org/2000/svg">
<g opacity="0.5">
<path d="M12.5 27.0833H37.5C41.4284 27.0833 43.3925 27.0833 44.6129 28.3037C45.8334 29.5241 45.8334 31.4883 45.8334 35.4166C45.8334 39.345 45.8334 41.3091 44.6129 42.5296C43.3925 43.75 41.4284 43.75 37.5 43.75H12.5C8.57165 43.75 6.60746 43.75 5.38708 42.5296C4.16669 41.3091 4.16669 39.345 4.16669 35.4166C4.16669 31.4883 4.16669 29.5241 5.38708 28.3037C6.60746 27.0833 8.57165 27.0833 12.5 27.0833Z" fill="#1C274C"/>
<path d="M12.5 6.25H37.5C41.4284 6.25 43.3925 6.25 44.6129 7.4704C45.8334 8.69077 45.8334 10.655 45.8334 14.5833C45.8334 18.5117 45.8334 20.4759 44.6129 21.6962C43.3925 22.9167 41.4284 22.9167 37.5 22.9167H12.5C8.57165 22.9167 6.60746 22.9167 5.38708 21.6962C4.16669 20.4759 4.16669 18.5117 4.16669 14.5833C4.16669 10.655 4.16669 8.69077 5.38708 7.4704C6.60746 6.25 8.57165 6.25 12.5 6.25Z" fill="#1C274C"/>
</g>
<path d="M26.5625 14.5833C26.5625 13.7204 27.2621 13.0208 28.125 13.0208H37.5C38.3629 13.0208 39.0625 13.7204 39.0625 14.5833C39.0625 15.4463 38.3629 16.1458 37.5 16.1458H28.125C27.2621 16.1458 26.5625 15.4463 26.5625 14.5833Z" fill="#1C274C"/>
<path d="M12.5 18.2292C11.6371 18.2292 10.9375 17.5296 10.9375 16.6667V12.5C10.9375 11.6371 11.6371 10.9375 12.5 10.9375C13.3629 10.9375 14.0625 11.6371 14.0625 12.5V16.6667C14.0625 17.5296 13.3629 18.2292 12.5 18.2292Z" fill="#1C274C"/>
<path d="M18.75 18.2292C17.8871 18.2292 17.1875 17.5296 17.1875 16.6667V12.5C17.1875 11.6371 17.8871 10.9375 18.75 10.9375C19.6129 10.9375 20.3125 11.6371 20.3125 12.5V16.6667C20.3125 17.5296 19.6129 18.2292 18.75 18.2292Z" fill="#1C274C"/>
<path d="M26.5625 35.4167C26.5625 34.5538 27.2621 33.8542 28.125 33.8542H37.5C38.3629 33.8542 39.0625 34.5538 39.0625 35.4167C39.0625 36.2796 38.3629 36.9792 37.5 36.9792H28.125C27.2621 36.9792 26.5625 36.2796 26.5625 35.4167Z" fill="#1C274C"/>
<path d="M12.5 39.0625C11.6371 39.0625 10.9375 38.3629 10.9375 37.5V33.3333C10.9375 32.4704 11.6371 31.7708 12.5 31.7708C13.3629 31.7708 14.0625 32.4704 14.0625 33.3333V37.5C14.0625 38.3629 13.3629 39.0625 12.5 39.0625Z" fill="#1C274C"/>
<path d="M18.75 39.0625C17.8871 39.0625 17.1875 38.3629 17.1875 37.5V33.3333C17.1875 32.4704 17.8871 31.7708 18.75 31.7708C19.6129 31.7708 20.3125 32.4704 20.3125 33.3333V37.5C20.3125 38.3629 19.6129 39.0625 18.75 39.0625Z" fill="#1C274C"/>
</svg>
